# xmcd
#
# Track frame offsets:
#	150
#	17719
#	34346
#	48900
#	64986
#	81945
#	101444
#	114316
#	128022
#	147516
#	163248
#	178264
#	189741
#	206253
#	218267
#	232758
#	251895
#	265366
#	281938
#	300748
#
# Disc length: 4236 seconds
#
# Revision: 0
# Processed by: cddbd v1.5.2PL0 Copyright (c) Steve Scherf et al.
# Submitted via: EasyCDDAExtractor 2011.0.0.0
#
DISCID=26108a14
DTITLE=Kenny Rogers - Edición Especial Kenny Rogers
DYEAR=2003
DGENRE=General Country Pop
TTITLE0=Lady
TTITLE1=Don't Fall In Love With A Dreamer
TTITLE2=Love The World Away
TTITLE3=The Gambler
TTITLE4=Desperado
TTITLE5=Something's Burning
TTITLE6=Ruby, Don't Take Your Love To Town
TTITLE7=Every Time Two Fools Collide (With Dottie West)
TTITLE8=Long Arm Of The Law
TTITLE9=I Don't Need You
TTITLE10=Share Your Love With Me
TTITLE11=Blaze Of Glory
TTITLE12=Lucille
TTITLE13=Reuben James
TTITLE14=Daytime Friends
TTITLE15=She Believes In Me
TTITLE16=I Wish I Could Hurt That Way Again
TTITLE17=You Decorated My Live
TTITLE18=Islands In The Stream
TTITLE19=Love Lifted Me
EXTD=
EXTT0=
EXTT1=
EXTT2=
EXTT3=
EXTT4=
EXTT5=
EXTT6=
EXTT7=
EXTT8=
EXTT9=
EXTT10=
EXTT11=
EXTT12=
EXTT13=
EXTT14=
EXTT15=
EXTT16=
EXTT17=
EXTT18=
EXTT19=
PLAYORDER=
